<?xml version="1.0" encoding="UTF-8" standalone="no"?>
<!-- Created with Inkscape (http://www.inkscape.org/) -->

<svg
   version="1.1"
   id="svg1"
   width="965.33331"
   height="405.33334"
   viewBox="0 0 965.33331 405.33334"
   xmlns="http://www.w3.org/2000/svg"
   xmlns:svg="http://www.w3.org/2000/svg">
  <defs
     id="defs1" />
  <g
     id="g1">
    <path
       d="m 690.56924,391.32908 -3.27273,-3.27273 V 202.05848 16.060608 l 1.49587,-3.283065 1.49586,-3.2830643 2.83747,-0.7614658 c 1.56061,-0.418807 58.18747,-0.769659 125.83747,-0.779673 l 122.99998,-0.018206 2.6667,2.6666661 2.6666,2.666667 v 38.518955 38.518961 l -2.4502,3.02595 -2.4503,3.02595 -16.2742,0.45509 c -8.9508,0.2503 -43.84818,0.4551 -77.54972,0.4551 h -61.27553 v 30.627897 30.62791 l 61.45195,0.37209 61.45195,0.3721 2.54805,3.14771 2.548,3.14771 v 35.9129 35.91289 l -3.27268,3.27273 -3.27273,3.27273 H 849.52037 790.2897 l -1.52206,1.83396 -1.52205,1.83395 0.3588,30.49938 0.35879,30.49937 77.61973,0.66667 77.61975,0.66667 2.3802,2.37884 2.3803,2.37884 0.3923,36.36635 0.3924,36.36635 -2.8225,3.58814 -2.8224,3.58815 H 818.47246 693.84197 Z"
       style="display:inline;fill:#b4131b;fill-opacity:1"
       id="path1-4" />
    <g
       id="g5"
       style="display:inline">
      <path
         id="path5"
         style="fill:#faaf3f;fill-opacity:1;stroke:none;stroke-width:2.768;stroke-opacity:0.982716;paint-order:markers fill stroke"
         d="M 269.66406 241.17188 L 250.7207 254.10938 L 243.63672 271.97266 L 120.125 271.97266 L 70.535156 394.25391 L 107.80469 394.5625 C 107.80469 394.5625 115.19558 393.94549 118.42969 385.7832 C 121.66381 377.62091 146.58398 297.91992 146.58398 297.91992 L 242.17773 303.33789 L 259.96094 317.86719 L 277.36328 322.94922 L 301.38867 324.79688 L 324.79688 302.92773 L 324.64258 262.27148 L 304.93164 247.79492 L 269.66406 241.17188 z M 282.3125 260.41797 A 22.051825 22.051825 0 0 1 304.36523 282.46875 A 22.051825 22.051825 0 0 1 282.3125 304.52148 A 22.051825 22.051825 0 0 1 260.26172 282.46875 A 22.051825 22.051825 0 0 1 282.3125 260.41797 z " />
      <path
         id="path1"
         style="display:inline;opacity:1;fill:#00843e;fill-opacity:1"
         d="m 146.81445,8 -3.47656,3 -3.47656,3 -12.48633,35.333984 c -6.86791,19.433333 -18.49764,52.432036 -25.84375,73.332036 -7.346115,20.9 -20.340668,57.8 -28.875,82 -8.534333,24.2 -20.51833,58.4 -26.632812,76 -6.114483,17.6 -16.295547,46.70129 -22.623047,64.66796 -6.3275,17.96667 -11.853265,35.42973 -12.28125,38.8086 l -0.779297,6.14453 3.126953,2.18945 3.126953,2.18946 H 50.25 83.90625 l 1.207031,-2.33204 c 1.005949,-1.9439 8.869504,-26.66129 35.208989,-110.66796 l 2.61328,-8.33204 h 61.59765 61.59766 l 1.51172,0.20118 a 35.809391,35.816242 0 0 1 34.63281,-26.98438 35.809391,35.816242 0 0 1 35.80859,35.81641 35.809391,35.816242 0 0 1 -35.80859,35.8164 35.809391,35.816242 0 0 1 -33.07812,-22.28906 l -1.84571,0.0742 -50.67578,0.34961 L 146,296.666 l -4.11523,12.66796 c -2.26307,6.96667 -4.51828,14.29238 -5.01172,16.2793 l -0.89649,3.61133 57.59375,0.0801 c 31.67646,0.0441 57.87238,0.36065 58.21485,0.70312 0.34247,0.34246 4.61504,13.08213 9.49414,28.3086 10.03668,31.32197 10.9229,33.31907 15.55468,35.08007 l 3.33985,1.26954 h 48.49219 48.49414 l 3.29687,-1.25196 3.29688,-1.2539 0.81445,-3.7461 0.81445,-3.74804 -6.50781,-19.33204 c -3.57953,-10.63333 -10.76241,-31.33333 -15.96289,-46 C 357.71162,304.66731 338.38453,249.46602 319.96289,196.66602 277.21151,74.132246 260.41391,26.098135 257.8418,19.013672 L 255.79102,13.361328 252.38281,10.681641 248.97461,8 h -51.08008 z m 48.11914,126.58203 c 0.11986,0.0472 0.24025,0.14845 0.3711,0.2793 0.35098,0.35098 3.60822,10.20076 7.23828,21.88867 3.63006,11.68792 11.44237,36.64719 17.36133,55.46484 5.91897,18.81765 10.76172,34.867 10.76172,35.66602 v 1.45312 H 194 157.33398 v -1.35546 c 0,-0.74557 6.26001,-20.39687 13.91211,-43.66797 7.65209,-23.2711 15.829,-48.3112 18.16993,-55.64453 3.88533,-12.1714 4.6786,-14.4146 5.51757,-14.08399 z" />
    </g>
    <path
       id="path7"
       style="display:inline;fill:#faaf3f;fill-opacity:1;stroke:none;stroke-width:2.56908;stroke-opacity:0.982716;paint-order:markers fill stroke"
       d="M 512.49879,4.3077818 C 501.96613,4.2251192 491.63898,4.8186579 484.58576,6.1135403 455.4954,11.454161 431.47888,23.604209 413.26309,42.194395 391.2411,64.669004 381.05773,90.8774 381.06253,125.0648 c 0.005,34.45799 8.13989,55.87875 28.88415,76.04972 19.02246,18.49678 43.20593,31.49021 95.89678,51.52229 25.23597,9.59425 33.85788,13.74454 39.46706,19.00337 5.24553,4.9179 6.91779,8.72866 6.91779,15.77131 0,6.62887 -1.90406,11.14545 -6.59159,15.63402 -6.99939,6.70233 -17.13383,9.66032 -33.16418,9.68092 -25.16386,0.0324 -50.72171,-8.72799 -75.51459,-25.88698 -9.10069,-6.29855 -10.80837,-7.14223 -14.35489,-7.08766 -7.79233,0.11981 -17.72988,9.40057 -33.82785,31.59411 -4.10404,5.65804 -7.93888,11.73365 -8.52257,13.50029 -4.56017,13.80257 15.77146,36.28995 47.27536,52.29073 8.16069,4.1448 12.78231,6.14048 25.50211,11.00807 12.99204,4.97178 36.30675,9.62168 53.18267,10.60766 73.91686,4.31861 130.86094,-29.45069 146.08362,-86.63258 2.30539,-8.65986 2.45299,-10.46175 2.4934,-30.26886 0.0392,-19.21481 -0.14568,-21.79359 -2.12408,-29.42225 -8.25145,-31.81731 -26.31184,-53.00086 -63.53686,-74.52807 -11.46342,-6.62927 -27.21862,-13.7194 -54.38625,-24.47595 -33.77095,-13.37102 -45.01473,-19.53685 -49.85502,-27.33808 -1.47781,-2.38181 -1.73059,-4.1391 -1.43042,-9.91546 0.55807,-10.73986 4.40894,-16.873629 13.55251,-21.583302 6.73315,-3.468122 20.59443,-3.672305 33.541,-0.493867 15.24307,3.742243 26.67389,8.737669 54.80807,23.955389 10.07847,5.45141 11.86369,5.21327 19.31359,-2.57993 9.7778,-10.22838 34.59554,-43.619955 37.28486,-50.166539 3.64614,-8.875765 0.7975,-13.372949 -15.17042,-23.963011 C 599.81311,23.450945 571.63049,11.93849 541.6454,6.5616428 533.77086,5.1496013 523.03144,4.3904464 512.49879,4.3077818 Z" />
  </g>
</svg>
