<?xml version="1.0" encoding="UTF-8" standalone="no"?>
<!-- Created with Inkscape (http://www.inkscape.org/) -->

<svg
   version="1.1"
   id="svg1"
   width="365.98871"
   height="372.13217"
   viewBox="0 0 365.98871 372.13217"
   sodipodi:docname="favicon.svg"
   inkscape:version="1.4 (e7c3feb1, 2024-10-09)"
   inkscape:export-filename="flowrunner-white.svg"
   inkscape:export-xdpi="96"
   inkscape:export-ydpi="96"
   xmlns:inkscape="http://www.inkscape.org/namespaces/inkscape"
   xmlns:sodipodi="http://sodipodi.sourceforge.net/DTD/sodipodi-0.dtd"
   xmlns:xlink="http://www.w3.org/1999/xlink"
   xmlns="http://www.w3.org/2000/svg"
   xmlns:svg="http://www.w3.org/2000/svg">
  <sodipodi:namedview
     id="namedview1"
     pagecolor="#ffffff"
     bordercolor="#000000"
     borderopacity="0.25"
     inkscape:showpageshadow="2"
     inkscape:pageopacity="0.0"
     inkscape:pagecheckerboard="0"
     inkscape:deskcolor="#d1d1d1"
     inkscape:zoom="0.85612307"
     inkscape:cx="153.59941"
     inkscape:cy="188.05707"
     inkscape:window-width="1472"
     inkscape:window-height="891"
     inkscape:window-x="2560"
     inkscape:window-y="209"
     inkscape:window-maximized="1"
     inkscape:current-layer="svg1" />
  <defs
     id="defs1">
    <linearGradient
       id="linearGradient16"
       inkscape:collect="always">
      <stop
         style="stop-color:#f9f8f7;stop-opacity:1;"
         offset="0"
         id="stop16" />
      <stop
         style="stop-color:#f2efed;stop-opacity:0.90881461;"
         offset="1"
         id="stop17" />
    </linearGradient>
    <marker
       style="overflow:visible"
       id="marker11"
       refX="0"
       refY="0"
       orient="auto-start-reverse"
       inkscape:stockid="Triangle arrow"
       markerWidth="1"
       markerHeight="1"
       viewBox="0 0 1 1"
       inkscape:isstock="true"
       inkscape:collect="always"
       preserveAspectRatio="xMidYMid">
      <path
         transform="scale(0.5)"
         style="fill:context-stroke;fill-rule:evenodd;stroke:context-stroke;stroke-width:1pt"
         d="M 5.77,0 -2.88,5 V -5 Z"
         id="path11" />
    </marker>
    <marker
       style="overflow:visible"
       id="marker9"
       refX="0"
       refY="0"
       orient="auto-start-reverse"
       inkscape:stockid="Triangle arrow"
       markerWidth="1"
       markerHeight="1"
       viewBox="0 0 1 1"
       inkscape:isstock="true"
       inkscape:collect="always"
       preserveAspectRatio="xMidYMid">
      <path
         transform="scale(0.5)"
         style="fill:context-stroke;fill-rule:evenodd;stroke:context-stroke;stroke-width:1pt"
         d="M 5.77,0 -2.88,5 V -5 Z"
         id="path9" />
    </marker>
    <marker
       style="overflow:visible"
       id="Triangle"
       refX="0"
       refY="0"
       orient="auto-start-reverse"
       inkscape:stockid="Triangle arrow"
       markerWidth="1"
       markerHeight="1"
       viewBox="0 0 1 1"
       inkscape:isstock="true"
       inkscape:collect="always"
       preserveAspectRatio="xMidYMid">
      <path
         transform="scale(0.5)"
         style="fill:context-stroke;fill-rule:evenodd;stroke:context-stroke;stroke-width:1pt"
         d="M 5.77,0 -2.88,5 V -5 Z"
         id="path135" />
    </marker>
    <inkscape:path-effect
       effect="bspline"
       id="path-effect8"
       is_visible="true"
       lpeversion="1.3"
       weight="33.333333"
       steps="2"
       helper_size="0"
       apply_no_weight="true"
       apply_with_weight="true"
       only_selected="false"
       uniform="false" />
    <inkscape:path-effect
       effect="bspline"
       id="path-effect2"
       is_visible="true"
       lpeversion="1.3"
       weight="33.333333"
       steps="2"
       helper_size="0"
       apply_no_weight="true"
       apply_with_weight="true"
       only_selected="false"
       uniform="false" />
    <filter
       style="color-interpolation-filters:sRGB"
       id="filter31"
       x="-0.0072945117"
       y="-0.0070454608"
       width="1.0146795"
       height="1.0140911">
      <feGaussianBlur
         stdDeviation="0.018865722"
         id="feGaussianBlur31" />
    </filter>
    <filter
       style="color-interpolation-filters:sRGB"
       id="filter31-5"
       x="-0.019410976"
       y="-0.01874855"
       width="1.0390672"
       height="1.0374975">
      <feGaussianBlur
         stdDeviation="0.018865722"
         id="feGaussianBlur31-6" />
    </filter>
    <filter
       style="color-interpolation-filters:sRGB"
       id="filter45"
       x="-0.038378312"
       y="-0.037405874"
       width="1.0767562"
       height="1.0757429">
      <feGaussianBlur
         stdDeviation="1.7991683"
         id="feGaussianBlur45" />
    </filter>
    <inkscape:path-effect
       effect="bspline"
       id="path-effect2-7"
       is_visible="true"
       lpeversion="1.3"
       weight="33.333333"
       steps="2"
       helper_size="0"
       apply_no_weight="true"
       apply_with_weight="true"
       only_selected="false"
       uniform="false" />
    <linearGradient
       inkscape:collect="always"
       xlink:href="#linearGradient16"
       id="linearGradient17"
       x1="328.10329"
       y1="232.26878"
       x2="672.15428"
       y2="232.26878"
       gradientUnits="userSpaceOnUse" />
    <filter
       inkscape:collect="always"
       style="color-interpolation-filters:sRGB;"
       id="filter18"
       x="-0.059463189"
       y="-0.14000221"
       width="1.1641778"
       height="1.3841381"
       inkscape:label="Drop Shadow">
      <feGaussianBlur
         inkscape:collect="always"
         stdDeviation="0.30987542"
         id="feGaussianBlur18"
         result="fbSourceGraphic" />
      <feColorMatrix
         result="fbSourceGraphicAlpha"
         in="fbSourceGraphic"
         values="0 0 0 -1 0 0 0 0 -1 0 0 0 0 -1 0 0 0 0 1 0"
         id="feColorMatrix20" />
      <feFlood
         id="feFlood20"
         result="flood"
         in="fbSourceGraphic"
         flood-opacity="0.498039"
         flood-color="rgb(0,0,0)" />
      <feGaussianBlur
         id="feGaussianBlur21"
         result="blur"
         in="fbSourceGraphic"
         stdDeviation="3.000000" />
      <feOffset
         id="feOffset21"
         result="offset"
         in="blur"
         dx="6.000000"
         dy="6.000000" />
      <feComposite
         id="feComposite21"
         result="comp1"
         operator="in"
         in="flood"
         in2="offset" />
      <feComposite
         id="feComposite22"
         result="fbSourceGraphic"
         operator="over"
         in="fbSourceGraphic"
         in2="comp1" />
      <feColorMatrix
         result="fbSourceGraphicAlpha"
         in="fbSourceGraphic"
         values="0 0 0 -1 0 0 0 0 -1 0 0 0 0 -1 0 0 0 0 1 0"
         id="feColorMatrix22" />
      <feFlood
         id="feFlood22"
         result="flood"
         in="fbSourceGraphic"
         flood-opacity="0.498039"
         flood-color="rgb(0,0,0)" />
      <feGaussianBlur
         id="feGaussianBlur22"
         result="blur"
         in="fbSourceGraphic"
         stdDeviation="3.000000" />
      <feOffset
         id="feOffset22"
         result="offset"
         in="blur"
         dx="6.000000"
         dy="6.000000" />
      <feComposite
         id="feComposite23"
         result="comp1"
         operator="in"
         in="flood"
         in2="offset" />
      <feComposite
         id="feComposite24"
         result="comp2"
         operator="over"
         in="fbSourceGraphic"
         in2="comp1" />
    </filter>
    <filter
       inkscape:collect="always"
       style="color-interpolation-filters:sRGB"
       id="filter19"
       x="-0.0051901653"
       y="-0.018226555"
       width="1.0103827"
       height="1.0419846">
      <feGaussianBlur
         inkscape:collect="always"
         stdDeviation="0.088699504"
         id="feGaussianBlur19" />
    </filter>
    <filter
       inkscape:collect="always"
       style="color-interpolation-filters:sRGB"
       id="filter20"
       x="-0.029182612"
       y="-0.028899206"
       width="1.0583652"
       height="1.0577984">
      <feGaussianBlur
         inkscape:collect="always"
         stdDeviation="0.066435694"
         id="feGaussianBlur20" />
    </filter>
  </defs>
  <g
     id="g1"
     transform="translate(-319.96396,-48.964755)"
     style="display:inline">
    <g
       id="g2"
       style="display:inline;stroke-width:1.00157;stroke-dasharray:none">
      <path
         style="display:none;opacity:0.861502;fill:#e2ffe2;fill-opacity:1;stroke:#000000;stroke-width:18.749;stroke-linecap:round;stroke-linejoin:round;stroke-dasharray:none;filter:url(#filter45)"
         d="m 322.15717,379.9445 c -0.21803,-34.6222 -1.49485,-269.32889 -1.41638,-290.182808 0.084,-22.33759 32.02967,-52.74522 74.06016,-30.24434 110.91911,59.380198 141.14721,72.336008 263.22537,136.867808 25.4214,13.43804 27.0694,49.16218 -1.53805,65.77863 -109.40744,63.54859 -146.15574,79.83757 -272.05074,148.26405 -18.3012,9.94708 -62.07373,2.33973 -62.28036,-30.48334 z"
         id="path1-3" />
      <path
         id="path10"
         style="display:none;fill:#4f38ea;fill-opacity:0.60582;stroke-width:1.72281;stroke-dasharray:none"
         d="m 439.87891,83.199219 c -1.81692,4.379625 -29.85175,86.513401 -44.53516,130.476561 -3.93084,11.76926 -14.06751,41.80252 -22.52539,66.74219 -29.66349,87.46832 -29.76132,87.82385 -25.1582,90.67383 1.02626,0.63543 14.895,0.92234 37.13086,0.76953 34.51342,-0.23719 35.54687,-0.30235 37.5332,-2.36914 1.24676,-1.29724 4.78883,-10.82585 9.08984,-24.45508 l 7.04688,-22.33008 h 41.57031 c 29.04314,0 41.88766,0.33877 42.62305,1.125 0.33554,0.35871 1.69431,4.28088 3.3789,9.44336 l 70.58203,-37.10742 c -0.0457,-0.13618 -0.15527,-0.43683 -0.19921,-0.56836 -21.01361,-62.89207 -39.00808,-118.92545 -51.64063,-158.4043 z M 481,175.37109 c 0.65513,-0.0171 1.69009,3.17426 6.47656,18.95118 15.65424,51.59898 19.19256,63.94956 18.70117,65.28125 -0.78702,2.13305 -50.36771,2.17081 -51.15429,0.0391 -0.4222,-1.14419 24.48596,-82.6183 25.70898,-84.09375 0.0879,-0.10601 0.17399,-0.17529 0.26758,-0.17774 z" />
      <path
         style="display:none;fill:#4f38ea;fill-opacity:1;stroke-width:1.00157;stroke-dasharray:none"
         d="m 479.86906,326.02397 c -11.51842,-0.89219 -21.13013,-3.21571 -31.30318,-7.56719 -13.7504,-5.88168 -26.31085,-17.02922 -25.23766,-22.39873 0.24033,-1.20245 2.58591,-4.40722 6.68482,-9.13352 10.93459,-12.60822 11.95236,-13.02935 19.11444,-7.909 5.81894,4.1601 13.39272,7.86501 19.82786,9.69931 4.83901,1.37933 6.35608,1.5425 14.68996,1.57991 8.97682,0.0403 9.41621,-0.0121 12.88942,-1.53845 6.1295,-2.69368 8.09623,-5.15377 8.09623,-10.12725 0,-5.69742 -4.44598,-9.37749 -16.18894,-13.40007 -25.51613,-8.74062 -33.65218,-12.07728 -41.69096,-17.09783 -6.67673,-4.16988 -13.79949,-11.32314 -16.89203,-16.96436 -4.403,-8.03167 -5.60655,-13.0168 -5.62023,-23.2792 -0.0217,-16.22234 6.78924,-29.11453 20.50654,-38.81645 18.1206,-12.81626 44.95352,-15.31269 71.27783,-6.6314 9.71198,3.20284 24.60293,11.03692 28.11456,14.79097 2.38655,2.55131 2.34828,3.98121 -0.20171,7.53792 -3.55013,4.9517 -15.92483,19.68087 -17.28758,20.57678 -2.28361,1.50135 -4.55919,0.99359 -11.17244,-2.49298 -17.94111,-9.45868 -29.27653,-11.71639 -38.21529,-7.61147 -7.10665,3.26357 -8.9492,10.56234 -4.02859,15.95817 2.73493,2.99904 7.48324,5.25218 22.09144,10.4827 20.58021,7.36882 29.24788,11.49289 37.99787,18.07935 8.19001,6.16493 14.29651,14.75038 16.6672,23.43331 1.55659,5.70125 1.58294,21.01759 0.0452,26.29781 -1.26889,4.35713 -4.43601,10.81353 -7.06148,14.39532 -8.67796,11.83887 -26.27498,20.2338 -46.39011,22.1311 -7.15712,0.67508 -8.06164,0.67537 -16.71317,0.005 z m -221.77265,-3.33633 c -2.81682,-1.57406 -2.75663,-1.76982 15.39557,-50.07907 5.1757,-13.77432 11.37846,-30.36259 13.78389,-36.86282 9.00244,-24.32734 26.22688,-69.87065 27.27945,-72.12984 0.60059,-1.28905 1.63926,-2.61865 2.30813,-2.95465 0.81478,-0.40929 8.90285,-0.61093 24.50618,-0.61093 26.43533,0 25.10726,-0.22823 27.04536,4.64789 2.45337,6.17251 29.36202,78.35287 51.03095,136.88646 3.32151,8.97232 6.03913,17.10057 6.03913,18.06279 0,3.66097 0.34638,3.61229 -25.70832,3.61229 h -23.51534 l -1.32043,-1.33783 c -0.83491,-0.84589 -2.75355,-5.63577 -5.21779,-13.02616 -2.14353,-6.42858 -4.18718,-11.96802 -4.54145,-12.30985 -0.45001,-0.43424 -8.30958,-0.62153 -26.08217,-0.62153 h -25.43804 l -4.31225,12.33312 c -2.63195,7.5275 -4.79928,12.79052 -5.56222,13.50699 -1.21551,1.1415 -1.84904,1.17759 -22.9691,1.30859 -13.60696,0.0844 -22.09354,-0.0745 -22.72155,-0.42545 z m 97.00314,-61.57556 c 0.3007,-0.7355 -1.86442,-7.55696 -11.44384,-36.05537 -3.34745,-9.95849 -3.6972,-10.83714 -4.12738,-10.36874 -0.74841,0.8149 -15.98976,45.81342 -15.7314,46.44536 0.48134,1.17738 30.82101,1.15678 31.30262,-0.0213 z m 214.66778,60.98126 -1.57985,-1.16644 v -79.05688 -79.05689 l 1.47172,-1.3814 1.47173,-1.3814 h 55.78912 c 54.45616,0 55.81697,0.0261 56.95487,1.09419 1.75132,1.64386 1.92726,3.57678 1.72149,18.91423 -0.16575,12.35463 -0.32023,14.28108 -1.25218,15.61459 l -1.06311,1.52121 -25.61865,0.0392 c -37.58893,0.0576 -43.16463,0.16487 -43.88833,0.84432 -0.42667,0.40059 -0.58719,4.73416 -0.4795,12.9442 l 0.1619,12.342 27.48467,0.2814 27.48469,0.2814 1.14575,1.32862 c 1.06452,1.23447 1.14573,2.40304 1.14573,16.48723 v 15.1586 l -1.47171,1.38138 -1.47174,1.3814 h -26.58909 c -19.88095,0 -26.77061,0.17039 -27.30859,0.67536 -1.02001,0.95741 -1.02001,25.26866 0,26.22606 0.54273,0.50944 9.09317,0.67535 34.80347,0.67535 h 34.08396 l 1.47173,1.3814 1.47172,1.3814 v 15.14503 c 0,14.46966 -0.0553,15.21118 -1.2427,16.62793 l -1.2427,1.48287 h -55.93729 c -55.68236,0 -55.94448,-0.005 -57.51711,-1.16642 z"
         id="path10-3" />
      <path
         d="m 464.61882,322.17029 c -19.05589,-2.34451 -36.6442,-9.89716 -46.78504,-20.09011 -4.25268,-4.27453 -6.13068,-7.45633 -5.59515,-9.47955 0.41487,-1.56733 8.75466,-11.60066 13.61221,-16.37639 4.29012,-4.21786 5.65681,-4.30521 10.57494,-0.67582 11.05012,8.15455 23.30139,12.26369 36.62959,12.28575 9.13675,0.0151 13.89311,-1.49923 17.89241,-5.69666 4.97751,-5.22409 4.06702,-11.91692 -2.17241,-15.96906 -3.99578,-2.59502 -6.66576,-3.71735 -17.84068,-7.49935 -21.76078,-7.36462 -30.93344,-11.52568 -39.62952,-17.97743 -7.97032,-5.91329 -14.08459,-14.56327 -16.71248,-23.6435 -1.53038,-5.28798 -1.55047,-20.97443 -0.0336,-26.23617 3.85085,-13.35787 13.98005,-24.91306 27.50305,-31.37491 9.86651,-4.71464 18.71063,-6.53969 31.57935,-6.51665 17.8278,0.0319 32.73567,4.07166 49.02319,13.28428 9.13919,5.16936 11.95434,7.83911 11.08516,10.51262 -0.4664,1.43459 -2.582,4.28528 -9.82525,13.23913 -7.09097,8.76562 -9.55192,11.12186 -11.61607,11.12186 -0.94899,0 -4.22086,-1.38844 -7.49329,-3.17982 -15.8983,-8.70302 -27.09258,-11.48316 -36.33551,-9.02407 -8.62555,2.29483 -12.66249,10.07808 -8.6198,16.61904 2.7063,4.37873 5.9136,5.93577 31.52616,15.30491 15.91676,5.82239 26.76431,11.88532 34.58691,19.33138 9.58052,9.11936 13.55002,18.80915 13.52099,33.00562 -0.0344,16.80345 -6.97784,29.53789 -21.03988,38.5874 -7.4944,4.82297 -17.09252,8.352 -27.02364,9.93605 -5.24457,0.83653 -21.6291,1.14907 -26.81164,0.51145 z"
         style="display:none;fill:#e5a201;stroke:#000000;stroke-width:6.29291;stroke-dasharray:none;stroke-opacity:1"
         id="path1-8" />
      <path
         style="display:none;fill:#e5a201;stroke:#000000;stroke-width:6.29291;stroke-dasharray:none;stroke-opacity:1"
         d="m 246.5693,318.79736 c -1.36915,-1.98135 -3.11354,3.08991 24.82255,-72.16356 4.13402,-11.13611 11.03007,-29.74384 15.32454,-41.35049 14.97911,-40.48398 17.78483,-47.67273 18.92623,-48.49239 1.58725,-1.13983 47.54504,-1.23622 49.17927,-0.10314 0.61053,0.4233 2.87138,5.60918 5.28385,12.11997 2.31921,6.25905 10.03645,27.16457 17.14943,46.45671 7.11299,19.29215 16.44767,44.57298 20.74373,56.17963 11.48803,31.03715 16.13694,44.16833 16.13694,45.58 0,0.69079 -0.33835,1.6935 -0.75189,2.22824 -0.68991,0.8921 -2.70513,0.95986 -24.44687,0.82195 l -23.69498,-0.1503 -1.10832,-1.42588 c -0.60958,-0.78423 -2.86067,-6.64834 -5.00243,-13.03136 -2.14176,-6.38301 -4.16403,-11.91385 -4.49392,-12.29076 -0.45073,-0.51497 -7.06998,-0.67827 -26.634,-0.65708 l -24.11146,-2.84748 -2.24303,6.2596 c -1.78374,4.97784 -2.43217,6.7891 -4.59799,12.22821 -2.84596,7.14714 -4.16,9.8004 -5.31121,10.74791 -1.52326,1.25372 -1.71945,1.26476 -22.86316,1.2869 l -21.32671,0.0223 z m 98.27644,-60.88914 c 0.18666,-0.92019 -3.29711,-11.99911 -11.78344,-37.47314 -1.92644,-5.78273 -3.79911,-10.60777 -4.1615,-10.72231 -0.36238,-0.11454 -1.08614,0.89524 -1.60835,2.24396 -2.24059,5.78673 -15.41356,44.78318 -15.41356,45.62933 0,0.51153 0.33835,1.0617 0.75189,1.22258 0.41353,0.16089 7.78598,0.24644 16.38321,0.19012 14.29847,-0.0937 15.64841,-0.18666 15.83175,-1.09054 z"
         id="path7-6" />
      <path
         style="display:none;fill:#21804d;stroke:#000000;stroke-width:14.3251;stroke-dasharray:none;stroke-opacity:1;filter:url(#filter31-5)"
         d="m 11.699213,451.24047 c -0.893928,-2.01177 -2.1675533,-3.73521 -2.3867393,-5.68335 -0.430246,-3.82408 2.3783773,-12.01962 71.0428813,-207.30244 9.282654,-26.4 21.278215,-60.59999 26.656815,-75.99999 18.97623,-54.33283 30.06965,-85.366158 31.55353,-88.269548 0.82537,-1.61492 3.30417,-3.56492 5.50846,-4.33334 5.48906,-1.91349 96.462,-1.89096 101.95886,0.0253 5.09802,1.77718 3.71875,-1.68258 34.78085,87.244288 5.12306,14.66667 20.11103,57.56667 33.3066,95.33333 55.10356,157.7103 62.7202,179.64492 64.58716,186 2.51714,8.56829 1.24176,12.24944 -4.62008,13.33497 -2.42194,0.44851 -25.76223,0.63162 -51.86731,0.40692 -51.23108,-0.44098 -50.61187,-0.35196 -53.4654,-7.68709 -0.72493,-1.86347 -4.89722,-14.76858 -9.27176,-28.67802 -4.37454,-13.90944 -8.59237,-26.05944 -9.37297,-27 -1.11333,-1.34148 -13.46451,-1.71011 -57.29785,-1.71011 -46.80756,0 -55.99549,-0.30465 -56.59873,-1.87666 -0.39607,-1.03216 1.14852,-7.93216 3.43244,-15.33333 l 4.15258,-13.45668 h 49.61188 49.61189 l 4.66419,6.29818 c 10.15218,13.70877 29.85633,18.0968 45.92701,10.22776 16.35837,-8.00991 23.88618,-25.01132 18.80837,-42.47836 -3.16159,-10.87551 -13.24773,-20.95847 -24.12945,-24.12188 -18.05506,-5.24875 -36.52035,2.94993 -43.99964,19.53604 l -2.46959,5.47657 -60.34191,-0.4635 c -44.36517,-0.34078 -60.74932,-0.0561 -61.88065,1.07524 -0.8463,0.84631 -9.77801,27.80233 -19.848246,59.90226 -14.394639,45.88444 -18.853898,58.57695 -20.855605,59.36185 -4.592164,1.80067 -66.211512,2.39074 -67.197586,0.17159 z M 228.57004,307.49721 c 0.44127,-1.14994 -5.08601,-20.79994 -12.28286,-43.66666 -7.19685,-22.86673 -14.9814,-47.75055 -17.29901,-55.29738 -4.38211,-14.26949 -6.33296,-17.783 -8.60969,-15.50626 -0.71806,0.71806 -7.99232,21.68806 -16.16502,46.6 -19.89038,60.62965 -21.49635,65.92215 -20.6627,68.0946 0.58993,1.53732 7.19775,1.86651 37.46661,1.86651 32.14635,0 36.85087,-0.26193 37.55267,-2.09081 z m 41.05053,48.28611 c -5.76172,-2.60847 -8.60321,-7.62383 -8.60321,-15.18505 0,-7.2529 2.31941,-11.40604 8.01473,-14.3512 7.38165,-3.8172 17.3337,-1.56215 21.90433,4.96334 1.1829,1.68882 2.08094,5.72841 2.08094,9.36053 0,5.35015 -0.70505,7.15891 -4.33413,11.11893 -5.0394,5.49894 -12.44535,7.08927 -19.06266,4.09345 z"
         id="path3-8"
         transform="matrix(0.45113362,0,0,0.42776371,242.2461,126.75102)" />
      <path
         d="m 559.2065,318.57076 c -1.19157,-1.12984 -1.20302,-1.90117 -1.20302,-80.98993 0,-79.08876 0.0115,-79.86009 1.20302,-80.98993 1.18574,-1.12432 2.00504,-1.1407 57.05037,-1.1407 h 55.84733 l 1.14588,1.20019 c 1.05051,1.10031 1.15853,2.34623 1.29798,14.97173 0.0837,7.57435 -1.1e-4,14.85927 -0.18616,16.18872 -0.61803,4.41632 1.76874,4.1352 -35.64847,4.19872 -18.42022,0.0313 -34.168,0.23533 -34.99508,0.45348 l -1.50378,0.39662 v 13.37755 13.37755 l 27.86882,0.28517 c 26.70728,0.27329 27.90439,0.33132 28.72217,1.39231 1.25332,1.62602 1.2534,30.95101 9e-5,32.57719 -0.81711,1.06021 -2.00885,1.11921 -28.12066,1.3923 -14.99707,0.15685 -27.60575,0.49282 -28.01929,0.7466 -0.56623,0.34749 -0.75188,3.75766 -0.75188,13.81096 0,12.61457 0.0641,13.38205 1.16347,13.93996 0.76269,0.38703 12.88447,0.59042 35.18843,0.59042 33.22293,0 34.0533,0.0269 35.22796,1.1407 1.14362,1.08437 1.20303,1.90117 1.20303,16.5402 0,14.63902 -0.0594,15.45582 -1.20303,16.54019 -1.18577,1.12435 -2.00503,1.1407 -57.14359,1.1407 -55.13855,0 -55.95781,-0.0163 -57.14359,-1.1407 z"
         style="display:none;fill:#e34719;stroke:#000000;stroke-width:6.29291;stroke-dasharray:none;stroke-opacity:1"
         id="path1" />
    </g>
  </g>
  <ellipse
     style="display:inline;stroke-width:1.951;stroke-dasharray:none;mix-blend-mode:normal;fill:url(#linearGradient17);fill-opacity:1;stroke:#fafafa;stroke-dashoffset:0;stroke-opacity:0.98271602;paint-order:markers fill stroke"
     id="path14"
     cx="500.12878"
     cy="232.26878"
     rx="172.0255"
     ry="172.32182"
     transform="translate(-319.96396,-48.964755)" />
  <path
     style="fill:#f9f8f7;fill-opacity:1;stroke:#040404;stroke-width:1.206;stroke-dasharray:none;stroke-dashoffset:0;stroke-opacity:0.98271602;paint-order:markers fill stroke;filter:url(#filter19)"
     d="m 301.24414,230.48798 -156.04068,-37.95383 0.87928,-7.11269 168.1347,41.51568 -1.40049,11.2191 z"
     id="path12-1"
     sodipodi:nodetypes="cccccc" />
  <g
     id="g17"
     style="display:inline;stroke-width:1.00157;stroke-dasharray:none"
     transform="translate(-286.44619,-42.261201)">
    <path
       style="display:inline;fill:#e5a201;stroke:#000000;stroke-width:4.025;stroke-dasharray:none;stroke-opacity:1"
       d="m 327.34235,356.52645 c -2.2374,-3.58742 -5.088,5.59456 40.56386,-130.65874 6.75562,-20.16295 18.02482,-53.85395 25.04265,-74.86885 24.47816,-73.299959 29.06314,-86.31585 30.92836,-87.799919 2.59381,-2.063767 77.6959,-2.23829 80.36648,-0.186745 0.9977,0.766424 4.69228,10.155934 8.63462,21.944316 3.78995,11.332584 16.4011,49.183938 28.0248,84.114138 11.62372,34.9302 26.87802,80.70346 33.89844,101.71836 18.77321,56.19561 26.37024,79.97081 26.37024,82.52677 0,1.25074 -0.55291,3.06624 -1.2287,4.03443 -1.12742,1.61523 -4.4206,1.73792 -39.94994,1.48822 l -38.72124,-0.27213 -1.81116,-2.58169 c -0.99615,-1.41992 -4.67478,-12.03743 -8.17474,-23.59447 -3.49996,-11.55703 -6.80466,-21.57112 -7.34376,-22.25355 -0.73656,-0.9324 -11.55343,-1.22807 -43.52404,-1.1897 l -39.40183,-5.15563 -3.66545,11.33358 c -2.91491,9.01284 -3.97454,12.29229 -7.51382,22.1403 -4.65074,12.94055 -6.79808,17.74452 -8.67934,19.46007 -2.48924,2.26998 -2.80984,2.28997 -37.36191,2.33005 l -34.85112,0.0404 z M 487.94114,246.28108 c 0.30503,-1.66609 -5.38798,-21.72549 -19.25595,-67.84855 -3.1481,-10.47016 -6.20833,-19.20634 -6.80053,-19.41373 -0.59218,-0.20738 -1.77492,1.62092 -2.62829,4.0629 -3.66147,10.4774 -25.18812,81.08405 -25.18812,82.61608 0,0.92617 0.55291,1.92231 1.2287,2.21359 0.67577,0.29131 12.72349,0.44621 26.77268,0.34423 23.36589,-0.16965 25.5719,-0.33796 25.87151,-1.97452 z"
       id="path7" />
    <path
       style="display:inline;fill:#21804d;stroke:#000000;stroke-width:5.32666;stroke-dasharray:none;stroke-opacity:1;filter:url(#filter31)"
       d="m 11.699213,451.24047 c -0.893928,-2.01177 -2.1675533,-3.73521 -2.3867393,-5.68335 -0.430246,-3.82408 2.3783773,-12.01962 71.0428813,-207.30244 9.282654,-26.4 21.278215,-60.59999 26.656815,-75.99999 18.97623,-54.33283 30.06965,-85.366158 31.55353,-88.269548 0.82537,-1.61492 3.30417,-3.56492 5.50846,-4.33334 5.48906,-1.91349 96.462,-1.89096 101.95886,0.0253 5.09802,1.77718 3.71875,-1.68258 34.78085,87.244288 5.12306,14.66667 20.11103,57.56667 33.3066,95.33333 55.10356,157.7103 62.7202,179.64492 64.58716,186 2.51714,8.56829 1.24176,12.24944 -4.62008,13.33497 -2.42194,0.44851 -25.76223,0.63162 -51.86731,0.40692 -51.23108,-0.44098 -50.61187,-0.35196 -53.4654,-7.68709 -0.72493,-1.86347 -4.89722,-14.76858 -9.27176,-28.67802 -4.37454,-13.90944 -8.59237,-26.05944 -9.37297,-27 -1.11333,-1.34148 -13.46451,-1.71011 -57.29785,-1.71011 -46.80756,0 -55.99549,-0.30465 -56.59873,-1.87666 -0.39607,-1.03216 1.14852,-7.93216 3.43244,-15.33333 l 4.15258,-13.45668 h 49.61188 49.61189 l 4.66419,6.29818 c 10.15218,13.70877 29.85633,18.0968 45.92701,10.22776 16.35837,-8.00991 23.88618,-25.01132 18.80837,-42.47836 -3.16159,-10.87551 -13.24773,-20.95847 -24.12945,-24.12188 -18.05506,-5.24875 -36.52035,2.94993 -43.99964,19.53604 l -2.46959,5.47657 -60.34191,-0.4635 c -44.36517,-0.34078 -60.74932,-0.0561 -61.88065,1.07524 -0.8463,0.84631 -9.77801,27.80233 -19.848246,59.90226 -14.394639,45.88444 -18.853898,58.57695 -20.855605,59.36185 -4.592164,1.80067 -66.211512,2.39074 -67.197586,0.17159 z M 228.57004,307.49721 c 0.44127,-1.14994 -5.08601,-20.79994 -12.28286,-43.66666 -7.19685,-22.86673 -14.9814,-47.75055 -17.29901,-55.29738 -4.38211,-14.26949 -6.33296,-17.783 -8.60969,-15.50626 -0.71806,0.71806 -7.99232,21.68806 -16.16502,46.6 -19.89038,60.62965 -21.49635,65.92215 -20.6627,68.0946 0.58993,1.53732 7.19775,1.86651 37.46661,1.86651 32.14635,0 36.85087,-0.26193 37.55267,-2.09081 z m 41.05053,48.28611 c -5.76172,-2.60847 -8.60321,-7.62383 -8.60321,-15.18505 0,-7.2529 2.31941,-11.40604 8.01473,-14.3512 7.38165,-3.8172 17.3337,-1.56215 21.90433,4.96334 1.1829,1.68882 2.08094,5.72841 2.08094,9.36053 0,5.35015 -0.70505,7.15891 -4.33413,11.11893 -5.0394,5.49894 -12.44535,7.08927 -19.06266,4.09345 z"
       id="path3"
       transform="matrix(0.73722159,0,0,0.77450538,320.27758,8.8089498)" />
  </g>
  <path
     id="path12"
     style="fill:#f9f8f7;fill-opacity:1;stroke:#040404;stroke-width:1.27;stroke-dasharray:none;stroke-dashoffset:0;stroke-opacity:0.982716;paint-order:markers fill stroke;filter:url(#filter18)"
     d="M 314.01953 90.087891 L 80.931641 166.00781 L 53.472656 158.31445 L 51.345703 168.24023 L 63.939453 171.54102 L 61.345703 172.38672 L 68.046875 181.20508 L 82.855469 176.50195 L 187.31445 203.88672 L 199.44727 203.34375 L 198.22656 198.86719 L 99.509766 171.21094 L 318.59961 101.61914 L 314.01953 90.087891 z " />
  <path
     id="use4"
     d="m 301.16201,90.77777 c 0,-14.745523 11.83929,-26.70277 26.44461,-26.70277 14.6053,0 26.44461,11.954869 26.44461,26.70277 0,14.74789 -11.83931,26.70273 -26.44461,26.70273 v 0 c -14.60532,0 -26.44461,-11.95484 -26.44461,-26.70273 z"
     style="fill:#b4121b;stroke-width:2.768;stroke:#030303;stroke-opacity:0.98271602;stroke-dasharray:none" />
  <path
     fill="#faaf3f"
     d="m 32.170496,169.70822 c 0,-14.74789 11.839294,-26.70273 26.444618,-26.70273 14.605301,0 26.444602,11.95484 26.444602,26.70273 0,14.74789 -11.839301,26.70274 -26.444602,26.70274 v 0 c -14.600615,-0.0143 -26.430468,-11.9596 -26.444618,-26.70274 z"
     id="path4"
     style="stroke-width:2.36755;stroke:#030303;stroke-opacity:0.454321" />
  <path
     fill="#00843f"
     d="m 301.32042,227.87407 c 0,-14.74551 11.83929,-26.70274 26.44461,-26.70274 14.6053,0 26.44461,11.95485 26.44461,26.70274 0,14.7479 -11.83931,26.70515 -26.44461,26.70515 v 0 c -14.60532,0 -26.44461,-11.95725 -26.44461,-26.70515 z"
     id="path6"
     style="stroke-width:2.768;stroke:#030303;stroke-opacity:1;filter:url(#filter20);stroke-dasharray:none" />
</svg>
